<?xml version="1.0" encoding="UTF-8" standalone="no"?>
<!-- Created using Karbon, part of Calligra: http://www.calligra.org/karbon -->

<svg
   xmlns:dc="http://purl.org/dc/elements/1.1/"
   xmlns:cc="http://creativecommons.org/ns#"
   xmlns:rdf="http://www.w3.org/1999/02/22-rdf-syntax-ns#"
   xmlns:svg="http://www.w3.org/2000/svg"
   xmlns="http://www.w3.org/2000/svg"
   xmlns:sodipodi="http://sodipodi.sourceforge.net/DTD/sodipodi-0.dtd"
   xmlns:inkscape="http://www.inkscape.org/namespaces/inkscape"
   width="221pt"
   height="221pt"
   version="1.1"
   id="svg9"
   sodipodi:docname="raiplay.svg"
   inkscape:version="0.92.2 2405546, 2018-03-11">
  <metadata
     id="metadata13">
    <rdf:RDF>
      <cc:Work
         rdf:about="">
        <dc:format>image/svg+xml</dc:format>
        <dc:type
           rdf:resource="http://purl.org/dc/dcmitype/StillImage" />
        <dc:title />
      </cc:Work>
    </rdf:RDF>
  </metadata>
  <sodipodi:namedview
     pagecolor="#ffffff"
     bordercolor="#666666"
     borderopacity="1"
     objecttolerance="10"
     gridtolerance="10"
     guidetolerance="10"
     inkscape:pageopacity="0"
     inkscape:pageshadow="2"
     inkscape:window-width="1920"
     inkscape:window-height="1008"
     id="namedview11"
     showgrid="false"
     inkscape:zoom="1.9905234"
     inkscape:cx="-38.55527"
     inkscape:cy="110.91506"
     inkscape:window-x="0"
     inkscape:window-y="0"
     inkscape:window-maximized="1"
     inkscape:current-layer="svg9" />
  <defs
     id="defs2" />
  <g
     id="_x23_ffffffff"
     transform="translate(0,-19.489337)" />
  <g
     id="_x23_002060ff"
     transform="translate(-334.223,0.194447)">
    <path
       id="shape0"
       transform="translate(334.223,0.162183)"
       d="M 0.117594,0 C 98.2676,0.08 196.418,-0.1 294.558,0.101 c -0.03,98.12 0.01,196.239 -0.02,294.359 -98.17,0.08 -196.3304,0.08 -294.5004058,0 C 0.0575942,196.309 -0.102406,98.16 0.117594,0 M 248.468,82.68 c -7.27,1.92 -12.45,9.52 -11.46,16.989 0.64,8.341 8.92,15.021 17.19,14.15 8.72,-0.6 15.84,-9.54 14.31,-18.19 -1.08,-9.109 -11.3,-15.729 -20.04,-12.949 M 28.5576,91.52 c 0.22,39.05 0.22,78.1 0,117.149 10.14,0.23 20.28,0.03 30.42,0.12 0.88,-15.07 0.14,-30.17 0.38,-45.25 10.3,14.78 19.14,30.54 29.52,45.271 12.5704,-0.051 25.1404,-0.101 37.7104,0.029 -12.03,-16.14 -24.74,-31.78 -36.5304,-48.1 9.9804,-2.4 19.1804,-9.42 22.7204,-19.26 4.57,-13.09 3.25,-29.351 -6.86,-39.561 -8.2604,-8.25 -20.4404,-10.899 -31.7504,-10.84 -15.2,0.332 -30.43,-0.508 -45.61,0.442 m 112.0104,45.47 c -17.35,16.5 -16.97,47.46 0.55,63.7 13.45,13.529 38.68,14.88 51.48,-0.25 0.09,2.779 0.19,5.569 0.31,8.359 9.28,-0.02 18.58,-0.09 27.86,0.051 0.29,-26.721 0.31,-53.44 -0.01,-80.16 -9.22,0.08 -18.45,0.06 -27.68,0.02 -0.27,2.271 -0.53,4.54 -0.76,6.82 -14.03,-13.28 -38.37,-12.25 -51.75,1.46 m 98.27,-8.31 c -0.46,26.71 -0.34,53.42 -0.06,80.14 9.3,-0.07 18.6,-0.061 27.9,-0.01 0.58,-9.721 0.21,-19.45 0.271,-29.181 -0.24,-16.979 0.56,-33.979 -0.39,-50.939 -9.241,0.08 -18.481,0.09 -27.721,-0.01 z"
       inkscape:connector-curvature="0"
       style="fill:#002060" />
    <path
       id="shape1"
       transform="translate(393.501,114.684)"
       d="m 0,0.288509 c 6.09,-0.7 12.57,-0.2399999 18.08,2.649001 8.04,4.551 8.42,17.89099 0.7,22.93999 -5.55,3.5 -12.38,3.45 -18.7,3.58 C 0.06,19.7285 0.15,10.0085 0,0.288509 Z"
       inkscape:connector-curvature="0"
       style="fill:#002060" />
    <path
       id="shape2"
       transform="translate(491.175,150.887)"
       d="m 12.746,0.65529 c 6.12,-1.449 13.2,-0.6189999 18,3.74 7.3,6.48001 7.77,18.98001 1.2,26.14001 -8.1,8.761 -25.05004,6.91 -30.14004,-4.22 -4.79,-9.47 0.32,-23.03001 10.94004,-25.66001 z"
       inkscape:connector-curvature="0"
       style="fill:#002060" />
  </g>
  <path
     style="opacity:1;fill:#ffffff;fill-opacity:1;stroke:none;stroke-width:2.08863664;stroke-miterlimit:4;stroke-dasharray:none;stroke-opacity:1;paint-order:normal"
     d="m 28.585799,150.56938 0.12767,-58.904109 26.274006,-0.130089 c 24.772272,-0.122653 26.561891,-0.07142 31.310813,0.896348 14.498912,2.954691 23.359972,10.34826 27.380052,22.84562 3.20431,9.96131 1.6253,24.41314 -3.5129,32.15183 -3.64692,5.49266 -10.27861,10.67136 -16.162485,12.6213 -1.370564,0.45422 -2.680481,0.99565 -2.910928,1.20319 -0.479838,0.43213 2.87863,5.06403 16.749953,23.10099 16.87336,21.94053 18.58448,24.21214 18.58448,24.67194 0,0.25323 -8.16351,0.44708 -18.82803,0.44708 H 88.770402 l -3.448626,-5.1494 C 83.425034,201.49191 78.073311,193.1838 73.429057,185.8616 68.784805,178.53941 63.775566,170.74197 62.297414,168.53395 l -2.687548,-4.01457 v 19.38907 c 0,10.66399 -0.145241,20.77867 -0.322758,22.47705 l -0.322758,3.08798 H 43.711239 28.458128 Z m 39.177537,-6.8742 c 5.443302,-0.70194 8.731968,-1.96499 11.428228,-4.38916 2.885453,-2.59427 4.040455,-5.45463 4.008132,-9.92612 -0.04211,-5.82517 -2.342283,-9.61737 -7.207935,-11.88341 -3.506096,-1.63286 -8.84788,-2.59515 -13.168383,-2.3722 l -2.962322,0.15286 -0.133299,14.44344 -0.1333,14.44344 2.394012,-0.0164 c 1.316706,-0.009 3.915396,-0.21262 5.774867,-0.45241 z"
     id="path4532"
     inkscape:connector-curvature="0" />
  <path
     style="opacity:1;fill:#ffffff;fill-opacity:1;stroke:none;stroke-width:2.08863664;stroke-miterlimit:4;stroke-dasharray:none;stroke-opacity:1;paint-order:normal"
     d="m 161.85845,211.45906 c -4.32639,-0.67798 -10.11653,-2.71829 -13.85358,-4.88167 -4.53884,-2.62754 -11.74366,-9.9857 -14.39488,-14.70125 -4.61372,-8.20611 -6.84953,-18.9714 -5.76412,-27.75394 0.83963,-6.7938 1.79803,-10.0501 4.68913,-15.93186 2.2954,-4.66987 3.16476,-5.84629 7.66,-10.36566 4.48248,-4.50654 5.6244,-5.36112 9.84334,-7.36648 6.43052,-3.05656 10.93662,-4.0707 17.83451,-4.01385 8.52213,0.0703 15.53443,2.3128 21.52106,6.88249 1.29289,0.98689 2.45056,1.79434 2.5726,1.79434 0.12204,0 0.37536,-1.35643 0.56292,-3.01428 l 0.34103,-3.01429 h 13.92097 13.92097 l 0.33101,13.94106 c 0.42083,17.72431 0.42111,33.818 0.001,52.04024 l -0.33218,14.39957 h -13.98578 -13.98578 l -0.007,-2.6375 c -0.004,-1.45062 -0.13839,-3.12785 -0.29915,-3.72717 -0.27615,-1.02953 -0.45617,-0.95761 -3.26188,1.30325 -3.51771,2.83461 -8.15884,5.19032 -12.38154,6.28453 -3.8773,1.00471 -11.04999,1.37095 -14.9328,0.76247 z m 22.0787,-26.55889 c 7.69988,-3.79064 11.08214,-12.60338 8.32316,-21.6867 -0.96213,-3.1676 -1.51904,-4.06069 -4.20771,-6.74769 -3.952,-3.94952 -6.71458,-4.99436 -13.19012,-4.98865 -4.13579,0.004 -4.87868,0.1584 -7.89935,1.64547 -10.32096,5.08099 -13.03438,19.59337 -5.2437,28.04526 3.77875,4.09946 8.28738,5.76394 14.85058,5.48249 3.43864,-0.14745 4.73909,-0.4564 7.36714,-1.75018 z"
     id="path4534"
     inkscape:connector-curvature="0" />
  <path
     style="opacity:1;fill:#ffffff;fill-opacity:1;stroke:none;stroke-width:2.08863664;stroke-miterlimit:4;stroke-dasharray:none;stroke-opacity:1;paint-order:normal"
     d="m 238.5799,169.24448 0.12859,-40.24466 13.7957,0.0685 c 7.58763,0.0377 13.91763,0.19037 14.06665,0.33931 0.14902,0.14895 0.27095,18.16818 0.27095,40.04274 v 39.77192 l -14.19524,0.13342 -14.19523,0.13343 z"
     id="path4536"
     inkscape:connector-curvature="0" />
  <path
     style="opacity:1;fill:#ffffff;fill-opacity:1;stroke:none;stroke-width:2.08863664;stroke-miterlimit:4;stroke-dasharray:none;stroke-opacity:1;paint-order:normal"
     d="m 248.64861,113.8262 c -7.26463,-2.37828 -11.75203,-8.11749 -11.7922,-15.081781 -0.029,-5.02294 1.23268,-8.055714 4.86201,-11.687316 3.76132,-3.763676 6.95521,-4.953067 12.27501,-4.571166 10.88626,0.781511 17.93903,12.36024 13.47204,22.117423 -1.58173,3.45495 -4.82148,6.79309 -8.07714,8.32242 -3.04385,1.42984 -7.88324,1.83557 -10.73972,0.90042 z"
     id="path4538"
     inkscape:connector-curvature="0" />
</svg>
